<svg width="19" height="19" viewBox="0 0 19 19" fill="none" xmlns="http://www.w3.org/2000/svg">
<g clip-path="url(#clip0)">
<path d="M15.1428 9.24748H4.64282C3.8144 9.24748 3.14282 9.91906 3.14282 10.7475V15.9975C3.14282 16.8259 3.8144 17.4975 4.64282 17.4975H15.1428C15.9712 17.4975 16.6428 16.8259 16.6428 15.9975V10.7475C16.6428 9.91906 15.9712 9.24748 15.1428 9.24748Z" stroke="black" stroke-opacity="0.34" stroke-width="2" stroke-linecap="round" stroke-linejoin="round"/>
<path d="M6.14282 7.19945V5.10969C6.14282 4.41689 6.53791 3.75246 7.24117 3.26258C7.94443 2.7727 8.89826 2.49748 9.89282 2.49748C10.8874 2.49748 11.8412 2.7727 12.5445 3.26258C13.2477 3.75246 13.6428 4.41689 13.6428 5.10969V7.19945" stroke="black" stroke-opacity="0.34" stroke-width="2" stroke-linecap="round" stroke-linejoin="round"/>
</g>
<defs>
<clipPath id="clip0">
<rect width="18" height="18" fill="white" transform="translate(0.892822 0.997482)"/>
</clipPath>
</defs>
</svg>
